<?xml version="1.0" standalone="no"?>
<!DOCTYPE svg PUBLIC "-//W3C//DTD SVG 20010904//EN"
 "http://www.w3.org/TR/2001/REC-SVG-20010904/DTD/svg10.dtd">
<svg version="1.0" xmlns="http://www.w3.org/2000/svg"
 width="500.000000pt" height="500.000000pt" viewBox="0 0 500.000000 500.000000"
 preserveAspectRatio="xMidYMid meet">
<metadata>
Created by potrace 1.16, written by Peter Selinger 2001-2019
</metadata>
<g transform="translate(0.000000,500.000000) scale(0.100000,-0.100000)"
fill="#000000" stroke="none">
<path d="M2265 4994 c-16 -3 -79 -11 -140 -20 -238 -33 -494 -114 -730 -230
-730 -358 -1242 -1054 -1370 -1864 -26 -161 -31 -503 -11 -670 58 -472 247
-924 540 -1287 88 -109 252 -272 368 -365 345 -279 763 -465 1198 -533 142
-23 489 -31 633 -15 420 45 791 179 1142 413 601 400 1000 1053 1090 1777 31
255 15 584 -41 840 -220 1003 -1040 1772 -2064 1935 -100 17 -540 30 -615 19z
m1272 -1225 c35 -13 79 -54 101 -94 15 -27 17 -98 20 -707 l3 -676 34 -21
c101 -59 102 -201 2 -275 -28 -21 -29 -21 -1209 -24 -1179 -2 -1181 -2 -1224
19 -115 55 -122 219 -13 282 l39 22 0 668 c0 578 2 673 15 704 21 50 42 72 90
94 38 18 92 19 1077 19 709 0 1046 -3 1065 -11z m-1387 -1911 c0 -2 -7 -38
-15 -81 -20 -104 -20 -102 19 -78 42 26 86 27 119 1 36 -28 40 -64 22 -171
-26 -154 -24 -149 -51 -149 -19 0 -24 4 -20 18 3 9 13 67 22 129 17 108 17
113 -1 133 -26 28 -69 25 -105 -7 -28 -25 -33 -40 -50 -143 -11 -63 -20 -118
-20 -122 0 -5 -11 -8 -25 -8 -14 0 -25 2 -25 5 0 2 18 107 40 232 22 126 40
231 40 236 0 4 11 7 25 7 14 0 25 -1 25 -2z m1892 -28 c44 -13 94 -59 100 -95
5 -24 3 -25 -38 -25 -24 0 -44 5 -44 10 0 6 -9 19 -20 30 -41 41 -130 17 -130
-35 0 -29 25 -49 87 -69 72 -24 115 -55 137 -100 16 -32 17 -44 7 -76 -16 -54
-60 -83 -133 -88 -100 -7 -198 49 -198 114 0 21 4 24 39 24 33 0 40 -4 51 -30
14 -34 63 -53 111 -43 37 7 51 25 47 60 -3 29 -2 29 -138 92 -103 47 -129 117
-70 185 43 49 117 66 192 46z m-2805 -26 c15 -12 37 -36 48 -55 28 -48 26
-155 -4 -225 -42 -97 -105 -134 -242 -142 l-87 -5 34 194 c18 107 36 209 39
227 l6 34 89 -4 c71 -2 94 -7 117 -24z m1573 -9 l0 -35 -100 0 -100 0 0 -60 0
-60 90 0 90 0 0 -35 0 -35 -90 0 -90 0 0 -95 0 -95 -45 0 -45 0 0 225 0 225
145 0 145 0 0 -35z m150 -190 l0 -225 -40 0 -40 0 0 225 0 225 40 0 40 0 0
-225z m210 150 c23 -41 46 -73 50 -70 5 3 26 37 46 75 l36 70 50 0 50 0 -28
-47 c-15 -27 -43 -73 -61 -103 -18 -30 -33 -62 -33 -70 0 -8 29 -64 65 -123
l65 -108 -52 3 -53 3 -38 70 c-21 39 -42 74 -46 78 -5 5 -28 -28 -52 -72 l-44
-81 -47 0 c-27 0 -48 3 -48 6 0 3 29 55 66 115 l65 109 -65 110 -65 110 49 0
49 0 41 -75z m590 40 l0 -35 -105 0 -105 0 0 -55 0 -55 90 0 90 0 0 -35 0 -35
-90 0 -90 0 0 -65 0 -65 105 0 105 0 0 -35 0 -35 -150 0 -150 0 0 225 0 225
150 0 150 0 0 -35z m-2170 -90 c44 -23 53 -64 35 -165 -8 -47 -15 -102 -15
-122 0 -34 -3 -38 -25 -38 -18 0 -25 5 -25 20 0 20 0 20 -32 0 -50 -30 -103
-26 -140 10 -26 27 -30 36 -25 67 11 67 52 94 152 102 68 6 70 7 73 34 8 64
-74 92 -124 42 -23 -23 -64 -34 -64 -17 0 4 7 18 16 31 33 47 119 65 174 36z
m357 -19 c29 -34 30 -66 3 -66 -13 0 -24 10 -30 25 -17 45 -96 46 -125 1 -23
-35 -10 -53 57 -75 80 -27 98 -44 98 -93 0 -118 -210 -135 -245 -20 -5 18 -3
22 18 22 16 0 28 -8 35 -25 21 -45 102 -47 135 -4 27 38 11 61 -58 83 -31 9
-65 26 -76 37 -29 29 -25 80 9 111 36 34 49 38 106 34 39 -3 55 -9 73 -30z
m-224 -673 c-21 -4 -23 -11 -25 -66 l-2 -62 -3 62 c-3 54 -7 62 -26 66 -12 2
1 4 28 4 28 0 40 -2 28 -4z m145 0 l-37 -4 0 -54 0 -54 37 -4 37 -4 -42 -1
-43 -2 0 65 0 65 43 -2 42 -1 -37 -4z m190 -5 c7 -7 12 -16 12 -22 0 -5 -6 -3
-12 6 -7 9 -22 18 -33 21 -20 5 -20 5 1 6 11 0 25 -4 32 -11z m109 -85 c-2
-21 -4 -6 -4 32 0 39 2 55 4 38 2 -18 2 -50 0 -70z m80 0 c-2 -21 -4 -6 -4 32
0 39 2 55 4 38 2 -18 2 -50 0 -70z m273 82 c11 -13 11 -20 0 -39 -9 -18 -9
-29 -1 -44 6 -11 11 -24 11 -29 -1 -4 -9 8 -19 27 -17 31 -17 36 -3 46 22 16
8 44 -22 44 -24 0 -25 -4 -29 -62 l-3 -63 -2 68 -2 67 29 0 c16 0 34 -7 41
-15z m138 8 l-37 -4 0 -54 0 -54 37 -4 37 -4 -42 -1 -43 -2 0 65 0 65 43 -2
42 -1 -37 -4z m192 -8 c15 -18 10 -47 -10 -52 -12 -4 -12 -3 -2 5 26 18 10 47
-27 50 -33 3 -34 3 -29 -30 2 -18 1 -46 -3 -63 -5 -22 -7 -12 -8 38 l-1 67 34
0 c18 0 39 -7 46 -15z m140 -6 c0 -6 -4 -8 -9 -4 -5 3 -13 -4 -16 -16 -4 -11
-9 -18 -11 -16 -8 8 19 57 27 51 5 -3 9 -10 9 -15z m127 -76 c-2 -21 -4 -6 -4
32 0 39 2 55 4 38 2 -18 2 -50 0 -70z m177 75 c8 -14 7 -22 -6 -34 -15 -15
-15 -20 -2 -46 8 -15 12 -28 10 -28 -3 0 -13 14 -21 31 -15 29 -15 32 1 43 26
20 11 46 -27 46 -30 0 -31 -2 -27 -32 3 -18 1 -46 -3 -63 -5 -22 -7 -12 -8 38
l-1 68 36 -3 c22 -2 42 -10 48 -20z m-1301 -28 c-6 -44 8 -70 38 -70 10 0 23
8 28 18 6 9 11 12 11 6 0 -15 -21 -34 -39 -34 -38 0 -63 57 -45 104 10 26 12
18 7 -24z m1022 -39 c6 -20 5 -22 -6 -11 -8 7 -15 24 -16 38 -1 29 9 16 22
-27z m-60 9 c3 -5 1 -10 -4 -10 -6 0 -11 5 -11 10 0 6 2 10 4 10 3 0 8 -4 11
-10z m-24 -43 c-10 -9 -11 -8 -5 6 3 10 9 15 12 12 3 -3 0 -11 -7 -18z"/>
<path d="M1419 3651 l-29 -29 0 -661 0 -661 1080 0 1080 0 0 665 0 666 -25 24
-24 25 -1026 0 -1027 0 -29 -29z m763 -149 l33 -32 3 -473 c2 -460 2 -473 -18
-505 -35 -57 -62 -62 -322 -62 -213 0 -235 2 -262 19 -56 37 -55 28 -55 536 0
508 -1 498 55 536 27 18 45 19 281 17 l253 -3 32 -33z m485 17 c91 -44 136
-137 113 -236 l-12 -56 188 -188 189 -189 58 0 c128 0 219 -90 216 -216 -1
-81 -10 -80 -67 1 -63 91 -75 93 -167 29 -47 -33 -65 -52 -65 -68 0 -12 23
-54 51 -94 54 -78 53 -83 -24 -61 -107 29 -173 160 -136 269 l12 32 -192 192
-191 191 -50 -3 c-99 -7 -198 67 -221 165 -8 34 -4 96 8 116 3 4 28 -25 57
-65 33 -46 60 -74 74 -76 34 -5 162 86 162 116 0 8 -19 42 -43 76 -23 33 -46
67 -50 74 -13 20 41 15 90 -9z m723 -44 l33 -34 -26 -38 c-82 -118 -101 -136
-157 -155 -44 -15 -72 -35 -140 -104 l-86 -85 -24 26 -24 26 87 87 c69 69 90
98 105 141 16 47 26 59 97 111 44 32 85 59 91 59 5 1 25 -15 44 -34z m-590
-590 c0 -5 -70 -80 -155 -165 -111 -111 -155 -161 -153 -175 7 -50 40 -28 203
135 145 145 163 160 175 145 13 -15 -5 -36 -162 -191 -175 -174 -175 -174
-220 -174 -53 0 -93 27 -114 76 -27 65 -14 85 170 272 l170 172 43 -42 c24
-23 43 -47 43 -53z"/>
<path d="M1615 3485 c-14 -13 -25 -29 -25 -35 0 -7 98 -10 300 -10 l301 0 -12
23 c-25 45 -31 46 -292 47 l-248 0 -24 -25z"/>
<path d="M1590 3030 l0 -380 300 0 300 0 0 380 0 380 -300 0 -300 0 0 -380z"/>
<path d="M1590 2565 c0 -48 4 -60 26 -80 l27 -25 248 0 247 0 26 31 c20 24 26
41 26 80 l0 49 -300 0 -300 0 0 -55z m330 5 c11 -11 20 -24 20 -30 0 -14 -37
-50 -52 -50 -17 0 -48 31 -48 48 0 20 29 52 47 52 7 0 22 -9 33 -20z"/>
<path d="M1877 2554 c-14 -14 -7 -35 11 -32 9 2 17 10 17 17 0 16 -18 25 -28
15z"/>
<path d="M1284 2166 c-13 -22 -14 -29 -2 -53 l13 -28 1172 -3 c1280 -2 1203
-6 1203 53 0 58 76 55 -1200 55 l-1170 0 -16 -24z"/>
<path d="M1043 1613 c-17 -98 -28 -182 -26 -187 10 -15 117 5 154 29 45 29 76
91 85 166 13 112 -32 169 -132 169 l-50 0 -31 -177z"/>
<path d="M1473 1543 c-26 -5 -63 -48 -63 -73 0 -23 32 -50 59 -50 25 0 73 22
88 42 6 7 13 30 16 51 l6 37 -42 -1 c-23 -1 -52 -4 -64 -6z"/>
</g>
</svg>
